<?xml version="1.0" encoding="UTF-8"?>
<!DOCTYPE svg PUBLIC "-//W3C//DTD SVG 1.1//EN" "http://www.w3.org/Graphics/SVG/1.1/DTD/svg11.dtd">
<svg xmlns="http://www.w3.org/2000/svg" version="1.1" width="360px" height="360px" style="shape-rendering:geometricPrecision; text-rendering:geometricPrecision; image-rendering:optimizeQuality; fill-rule:evenodd; clip-rule:evenodd" xmlns:xlink="http://www.w3.org/1999/xlink">
<g><path style="opacity:1" fill="#f6f6f6" d="M -0.5,-0.5 C 119.5,-0.5 239.5,-0.5 359.5,-0.5C 359.5,119.5 359.5,239.5 359.5,359.5C 239.5,359.5 119.5,359.5 -0.5,359.5C -0.5,239.5 -0.5,119.5 -0.5,-0.5 Z"/></g>
<g><path style="opacity:1" fill="#ffa501" d="M 173.5,34.5 C 233.096,35.0301 277.929,60.6968 308,111.5C 325.396,145.529 329.396,181.196 320,218.5C 299.737,279.375 257.904,314.541 194.5,324C 134.863,327.931 88.6962,305.097 56,255.5C 27.4318,204.752 27.4318,154.085 56,103.5C 84.1952,61.8025 123.362,38.8025 173.5,34.5 Z"/></g>
<g><path style="opacity:1" fill="#f2f2f1" d="M 158.5,85.5 C 172.657,84.5041 186.99,84.1707 201.5,84.5C 201.5,127.833 201.5,171.167 201.5,214.5C 187.167,214.5 172.833,214.5 158.5,214.5C 158.5,207.833 158.5,201.167 158.5,194.5C 160.5,194.5 162.5,194.5 164.5,194.5C 164.5,199.5 164.5,204.5 164.5,209.5C 169.5,209.5 174.5,209.5 179.5,209.5C 179.5,204.5 179.5,199.5 179.5,194.5C 184.5,194.5 189.5,194.5 194.5,194.5C 194.5,189.5 194.5,184.5 194.5,179.5C 189.5,179.5 184.5,179.5 179.5,179.5C 179.5,174.5 179.5,169.5 179.5,164.5C 184.5,164.5 189.5,164.5 194.5,164.5C 194.5,159.5 194.5,154.5 194.5,149.5C 189.5,149.5 184.5,149.5 179.5,149.5C 179.5,144.5 179.5,139.5 179.5,134.5C 184.5,134.5 189.5,134.5 194.5,134.5C 194.5,129.5 194.5,124.5 194.5,119.5C 189.5,119.5 184.5,119.5 179.5,119.5C 179.5,114.5 179.5,109.5 179.5,104.5C 184.5,104.5 189.5,104.5 194.5,104.5C 194.5,99.5 194.5,94.5 194.5,89.5C 189.5,89.5 184.5,89.5 179.5,89.5C 179.5,88.1667 179.5,86.8333 179.5,85.5C 172.5,85.5 165.5,85.5 158.5,85.5 Z"/></g>
<g><path style="opacity:1" fill="#f9f9f9" d="M 158.5,85.5 C 165.5,85.5 172.5,85.5 179.5,85.5C 179.5,86.8333 179.5,88.1667 179.5,89.5C 184.5,89.5 189.5,89.5 194.5,89.5C 194.5,94.5 194.5,99.5 194.5,104.5C 189.5,104.5 184.5,104.5 179.5,104.5C 179.5,109.5 179.5,114.5 179.5,119.5C 184.5,119.5 189.5,119.5 194.5,119.5C 194.5,124.5 194.5,129.5 194.5,134.5C 189.5,134.5 184.5,134.5 179.5,134.5C 179.5,139.5 179.5,144.5 179.5,149.5C 184.5,149.5 189.5,149.5 194.5,149.5C 194.5,154.5 194.5,159.5 194.5,164.5C 189.5,164.5 184.5,164.5 179.5,164.5C 179.5,169.5 179.5,174.5 179.5,179.5C 184.5,179.5 189.5,179.5 194.5,179.5C 194.5,184.5 194.5,189.5 194.5,194.5C 189.5,194.5 184.5,194.5 179.5,194.5C 179.5,199.5 179.5,204.5 179.5,209.5C 174.5,209.5 169.5,209.5 164.5,209.5C 164.5,204.5 164.5,199.5 164.5,194.5C 162.5,194.5 160.5,194.5 158.5,194.5C 158.5,158.167 158.5,121.833 158.5,85.5 Z"/></g>
<g><path style="opacity:1" fill="#f5f5f4" d="M 176.5,235.5 C 195.169,236.331 203.669,245.997 202,264.5C 197.161,277.841 187.661,283.341 173.5,281C 162.713,277.378 157.046,269.878 156.5,258.5C 158.248,246.426 164.915,238.759 176.5,235.5 Z"/></g>
</svg>
